<mxfile host="65bd71144e" pages="2">
    <diagram name="Sequence" id="JgcEw9M8dI1Xy2gp9OZx">
        <mxGraphModel dx="1164" dy="819" grid="1" gridSize="10" guides="1" tooltips="1" connect="1" arrows="1" fold="1" page="1" pageScale="1" pageWidth="850" pageHeight="1100" math="0" shadow="0">
            <root>
                <mxCell id="UR0DFZb04nUeP79YXbAC-0"/>
                <mxCell id="UR0DFZb04nUeP79YXbAC-1" parent="UR0DFZb04nUeP79YXbAC-0"/>
                <mxCell id="2" value="" style="rounded=0;whiteSpace=wrap;html=1;" parent="UR0DFZb04nUeP79YXbAC-1" vertex="1">
                    <mxGeometry x="60" y="500" width="600" height="390" as="geometry"/>
                </mxCell>
                <mxCell id="jlnA7Bbo42E9i6tjMMHw-2" value="Server" style="shape=umlLifeline;perimeter=lifelinePerimeter;whiteSpace=wrap;html=1;container=1;collapsible=0;recursiveResize=0;outlineConnect=0;lifelineDashed=0;" parent="UR0DFZb04nUeP79YXbAC-1" vertex="1">
                    <mxGeometry x="310" y="280" width="100" height="580" as="geometry"/>
                </mxCell>
                <mxCell id="jlnA7Bbo42E9i6tjMMHw-4" value="Client" style="shape=umlLifeline;perimeter=lifelinePerimeter;whiteSpace=wrap;html=1;container=1;collapsible=0;recursiveResize=0;outlineConnect=0;lifelineDashed=0;" parent="UR0DFZb04nUeP79YXbAC-1" vertex="1">
                    <mxGeometry x="60" y="280" width="120" height="580" as="geometry"/>
                </mxCell>
                <mxCell id="7" value="self_decrypt(private_key, password)" style="edgeStyle=orthogonalEdgeStyle;html=1;align=left;spacingLeft=2;endArrow=block;rounded=0;entryX=1;entryY=0;" parent="jlnA7Bbo42E9i6tjMMHw-4" edge="1">
                    <mxGeometry relative="1" as="geometry">
                        <mxPoint x="60" y="420" as="sourcePoint"/>
                        <Array as="points">
                            <mxPoint x="85" y="420"/>
                            <mxPoint x="85" y="440"/>
                        </Array>
                        <mxPoint x="60" y="440" as="targetPoint"/>
                    </mxGeometry>
                </mxCell>
                <mxCell id="jlnA7Bbo42E9i6tjMMHw-5" value="DataBase" style="shape=umlLifeline;perimeter=lifelinePerimeter;whiteSpace=wrap;html=1;container=1;collapsible=0;recursiveResize=0;outlineConnect=0;lifelineDashed=0;" parent="UR0DFZb04nUeP79YXbAC-1" vertex="1">
                    <mxGeometry x="550" y="280" width="100" height="580" as="geometry"/>
                </mxCell>
                <mxCell id="0" value="private_key" style="html=1;verticalAlign=bottom;endArrow=block;" parent="jlnA7Bbo42E9i6tjMMHw-5" edge="1">
                    <mxGeometry width="80" relative="1" as="geometry">
                        <mxPoint x="-190" y="160" as="sourcePoint"/>
                        <mxPoint x="50" y="160" as="targetPoint"/>
                        <mxPoint as="offset"/>
                    </mxGeometry>
                </mxCell>
                <mxCell id="UR0DFZb04nUeP79YXbAC-8" value="private_key" style="html=1;verticalAlign=bottom;endArrow=open;dashed=1;endSize=8;" parent="jlnA7Bbo42E9i6tjMMHw-5" edge="1">
                    <mxGeometry relative="1" as="geometry">
                        <mxPoint x="50" y="360" as="sourcePoint"/>
                        <mxPoint x="-190" y="360" as="targetPoint"/>
                    </mxGeometry>
                </mxCell>
                <mxCell id="10" value="" style="html=1;verticalAlign=bottom;endArrow=block;" parent="jlnA7Bbo42E9i6tjMMHw-5" edge="1">
                    <mxGeometry x="0.1959" y="10" width="80" relative="1" as="geometry">
                        <mxPoint x="-430" y="560" as="sourcePoint"/>
                        <mxPoint x="55" y="560" as="targetPoint"/>
                        <mxPoint as="offset"/>
                    </mxGeometry>
                </mxCell>
                <mxCell id="jlnA7Bbo42E9i6tjMMHw-13" value="PBKDF2(private_key, password)" style="html=1;verticalAlign=bottom;startArrow=circle;startFill=1;endArrow=open;startSize=6;endSize=8;" parent="UR0DFZb04nUeP79YXbAC-1" target="jlnA7Bbo42E9i6tjMMHw-2" edge="1">
                    <mxGeometry x="0.0421" width="80" relative="1" as="geometry">
                        <mxPoint x="110" y="359.5" as="sourcePoint"/>
                        <mxPoint x="299.5" y="359.5" as="targetPoint"/>
                        <mxPoint y="1" as="offset"/>
                    </mxGeometry>
                </mxCell>
                <mxCell id="jlnA7Bbo42E9i6tjMMHw-15" value="RSA(public_key, server_key)" style="html=1;verticalAlign=bottom;endArrow=block;" parent="UR0DFZb04nUeP79YXbAC-1" edge="1">
                    <mxGeometry width="80" relative="1" as="geometry">
                        <mxPoint x="120" y="400" as="sourcePoint"/>
                        <mxPoint x="360" y="400" as="targetPoint"/>
                    </mxGeometry>
                </mxCell>
                <mxCell id="1" value="&lt;br&gt;public_key" style="html=1;verticalAlign=bottom;endArrow=block;" parent="UR0DFZb04nUeP79YXbAC-1" edge="1">
                    <mxGeometry width="80" relative="1" as="geometry">
                        <mxPoint x="360" y="480" as="sourcePoint"/>
                        <mxPoint x="600" y="480" as="targetPoint"/>
                    </mxGeometry>
                </mxCell>
                <mxCell id="3" value="RSA(request_private_key, server_key)" style="html=1;verticalAlign=bottom;endArrow=block;" parent="UR0DFZb04nUeP79YXbAC-1" edge="1">
                    <mxGeometry width="80" relative="1" as="geometry">
                        <mxPoint x="120" y="560" as="sourcePoint"/>
                        <mxPoint x="360" y="560" as="targetPoint"/>
                    </mxGeometry>
                </mxCell>
                <mxCell id="4" value="request_private_key(client)" style="html=1;verticalAlign=bottom;endArrow=block;" parent="UR0DFZb04nUeP79YXbAC-1" edge="1">
                    <mxGeometry width="80" relative="1" as="geometry">
                        <mxPoint x="360" y="600" as="sourcePoint"/>
                        <mxPoint x="600" y="600" as="targetPoint"/>
                    </mxGeometry>
                </mxCell>
                <mxCell id="5" value="private_key" style="html=1;verticalAlign=bottom;endArrow=open;dashed=1;endSize=8;" parent="UR0DFZb04nUeP79YXbAC-1" edge="1">
                    <mxGeometry relative="1" as="geometry">
                        <mxPoint x="360" y="679.9999999999999" as="sourcePoint"/>
                        <mxPoint x="120" y="679.9999999999999" as="targetPoint"/>
                    </mxGeometry>
                </mxCell>
                <mxCell id="8" value="AES(message, temp_key)" style="html=1;verticalAlign=bottom;endArrow=block;" parent="UR0DFZb04nUeP79YXbAC-1" edge="1">
                    <mxGeometry width="80" relative="1" as="geometry">
                        <mxPoint x="360" y="760" as="sourcePoint"/>
                        <mxPoint x="120" y="760" as="targetPoint"/>
                    </mxGeometry>
                </mxCell>
                <mxCell id="9" value="RSA(temp_key, client_key)" style="html=1;verticalAlign=bottom;endArrow=block;" parent="UR0DFZb04nUeP79YXbAC-1" edge="1">
                    <mxGeometry width="80" relative="1" as="geometry">
                        <mxPoint x="360" y="800" as="sourcePoint"/>
                        <mxPoint x="120" y="800" as="targetPoint"/>
                    </mxGeometry>
                </mxCell>
            </root>
        </mxGraphModel>
    </diagram>
</mxfile>